<svg id="dark" xmlns="http://www.w3.org/2000/svg" width="30" height="30" viewBox="0 0 30 30">
  <circle id="Ellipse_24" data-name="Ellipse 24" cx="0.879" cy="0.879" r="0.879" transform="translate(26.484 1.758)" fill="#bbb"/>
  <circle id="Ellipse_25" data-name="Ellipse 25" cx="0.879" cy="0.879" r="0.879" transform="translate(28.242 8.848)" fill="#bbb"/>
  <path id="Path_58" data-name="Path 58" d="M15.059,30A14.982,14.982,0,0,0,29.2,19.784a.879.879,0,0,0-1.384-.966,10.425,10.425,0,0,1-6.609,2.334A10.609,10.609,0,0,1,10.606,10.605a10.652,10.652,0,0,1,5-8.98.861.861,0,0,0,.337-.989A.927.927,0,0,0,15.059,0,15.109,15.109,0,0,0,0,15,15.109,15.109,0,0,0,15.059,30Z" transform="translate(0 0)" fill="#bbb"/>
  <path id="Path_59" data-name="Path 59" d="M272.879,35.332a2.64,2.64,0,0,1,2.637,2.637.879.879,0,0,0,1.758,0,2.64,2.64,0,0,1,2.637-2.637.879.879,0,0,0,0-1.758,2.69,2.69,0,0,1-2.637-2.7.879.879,0,0,0-1.758,0,2.69,2.69,0,0,1-2.637,2.7.879.879,0,0,0,0,1.758Z" transform="translate(-256.062 -28.242)" fill="#bbb"/>
</svg>
