<svg xmlns="http://www.w3.org/2000/svg" width="30" height="30" viewBox="0 0 30 30">
  <g id="light" transform="translate(-8310 -2529)">
    <g id="_002-sun" data-name="002-sun" transform="translate(8310 2529)">
      <g id="Group_3" data-name="Group 3" transform="translate(0)">
        <path id="Path_49" data-name="Path 49" d="M253.313,5.655a9.3,9.3,0,0,1,3.2.563,4.1,4.1,0,0,0-1.445-3.6C253.1,1.166,254.509,0,254.509,0s-3.626.775-3.136,5.859A9.341,9.341,0,0,1,253.313,5.655Z" transform="translate(-238.313 0)" fill="#e2dc20"/>
        <path id="Path_50" data-name="Path 50" d="M462.82,229.208a4.1,4.1,0,0,0-3.6-1.445,9.344,9.344,0,0,1,.36,5.136c5.084.49,5.859-3.136,5.859-3.136S464.278,231.174,462.82,229.208Z" transform="translate(-435.444 -215.96)" fill="#e2dc20"/>
        <path id="Path_51" data-name="Path 51" d="M229.768,465.447s3.627-.774,3.136-5.859a9.343,9.343,0,0,1-5.136-.36,4.1,4.1,0,0,0,1.445,3.6C231.179,464.282,229.768,465.447,229.768,465.447Z" transform="translate(-215.965 -435.447)" fill="#e2dc20"/>
        <path id="Path_52" data-name="Path 52" d="M2.628,255.069a4.1,4.1,0,0,0,3.6,1.445,9.343,9.343,0,0,1-.36-5.136C.778,250.887,0,254.513,0,254.513S1.17,253.1,2.628,255.069Z" transform="translate(-0.004 -238.316)" fill="#e2dc20"/>
        <path id="Path_53" data-name="Path 53" d="M369.758,74.862c3.947-3.249,1.929-6.363,1.929-6.363s.173,1.822-2.248,1.462a4.1,4.1,0,0,0-3.566,1.523A9.408,9.408,0,0,1,369.758,74.862Z" transform="translate(-346.927 -64.952)" fill="#e2dc20"/>
        <path id="Path_54" data-name="Path 54" d="M93.666,74.862a9.407,9.407,0,0,1,3.884-3.378,4.1,4.1,0,0,0-3.566-1.523c-2.421.36-2.248-1.462-2.248-1.462S89.719,71.613,93.666,74.862Z" transform="translate(-86.497 -64.952)" fill="#e2dc20"/>
        <path id="Path_55" data-name="Path 55" d="M93.989,392.84a4.1,4.1,0,0,0,3.566-1.523,9.4,9.4,0,0,1-3.884-3.378c-3.947,3.249-1.929,6.363-1.929,6.363S91.568,392.48,93.989,392.84Z" transform="translate(-86.501 -367.849)" fill="#e2dc20"/>
        <path id="Path_56" data-name="Path 56" d="M369.758,387.938a9.4,9.4,0,0,1-3.884,3.378,4.1,4.1,0,0,0,3.566,1.523c2.421-.36,2.248,1.462,2.248,1.462S373.705,391.188,369.758,387.938Z" transform="translate(-346.927 -367.848)" fill="#e2dc20"/>
        <path id="Path_57" data-name="Path 57" d="M141.18,138.6a8.473,8.473,0,0,0,0-9.159,8.537,8.537,0,0,0-3.192-2.938,8.5,8.5,0,0,0-7.934,0,8.537,8.537,0,0,0-3.192,2.938,8.473,8.473,0,0,0,0,9.159,8.536,8.536,0,0,0,3.192,2.938,8.5,8.5,0,0,0,7.934,0A8.538,8.538,0,0,0,141.18,138.6Z" transform="translate(-119.021 -119.022)" fill="#e2dc20"/>
      </g>
    </g>
    <circle id="Ellipse_26" data-name="Ellipse 26" cx="0.27" cy="0.27" r="0.27" transform="translate(8328.189 2539.823)" fill="#fff"/>
    <circle id="Ellipse_27" data-name="Ellipse 27" cx="0.27" cy="0.27" r="0.27" transform="translate(8327.439 2543.573)" fill="#fff"/>
    <path id="Path_60" data-name="Path 60" d="M272.451,32.735a1.354,1.354,0,0,1,1.353,1.353.451.451,0,0,0,.9,0,1.354,1.354,0,0,1,1.353-1.353.451.451,0,1,0,0-.9,1.38,1.38,0,0,1-1.353-1.383.451.451,0,0,0-.9,0,1.38,1.38,0,0,1-1.353,1.383.451.451,0,0,0,0,.9Z" transform="translate(8048.295 2509.662)" fill="#fff"/>
  </g>
</svg>
