<svg xmlns="http://www.w3.org/2000/svg" width="30" height="30" viewBox="0 0 30 30">
  <g id="settings" transform="translate(0 -0.001)">
    <g id="Group_2" data-name="Group 2" transform="translate(0 0.001)">
      <path id="Path_48" data-name="Path 48" d="M29.532,13.124c-.241-.152-2.134-1.285-2.886-1.629l-.932-2.25c.277-.744.806-2.831.889-3.192a1,1,0,0,0-.268-.93L24.878,3.666a1,1,0,0,0-.93-.268c-.274.063-2.416.6-3.192.889l-2.25-.932c-.329-.72-1.429-2.567-1.629-2.886A1,1,0,0,0,16.03,0H13.97a1,1,0,0,0-.847.468c-.152.241-1.285,2.134-1.629,2.886l-2.25.932C8.5,4.01,6.414,3.481,6.052,3.4a1,1,0,0,0-.93.268L3.665,5.123a1,1,0,0,0-.268.93c.063.274.6,2.416.889,3.192l-.932,2.25c-.72.329-2.567,1.429-2.886,1.629A1,1,0,0,0,0,13.971v2.061a1,1,0,0,0,.468.847c.241.152,2.134,1.285,2.886,1.629l.932,2.25c-.277.744-.806,2.831-.889,3.192a1,1,0,0,0,.268.93l1.457,1.457a1,1,0,0,0,.93.268c.274-.063,2.416-.6,3.192-.889l2.25.932c.329.72,1.429,2.567,1.629,2.886A1,1,0,0,0,13.97,30H16.03a1,1,0,0,0,.847-.468c.152-.241,1.285-2.134,1.629-2.886l2.25-.932c.744.277,2.831.806,3.192.889a1,1,0,0,0,.93-.268l1.457-1.457a1,1,0,0,0,.268-.93c-.063-.274-.6-2.416-.889-3.192l.932-2.25c.72-.329,2.567-1.429,2.886-1.629A1,1,0,0,0,30,16.031V13.971A1,1,0,0,0,29.532,13.124ZM15,21.54A6.539,6.539,0,1,1,21.539,15,6.547,6.547,0,0,1,15,21.54Z" transform="translate(0 -0.001)" fill="#bbb"/>
    </g>
  </g>
</svg>
