<svg xmlns="http://www.w3.org/2000/svg" width="36" height="30" viewBox="0 0 36 30">
  <path id="Union_2" data-name="Union 2" d="M24.538,30H5.682a5.834,5.834,0,0,1-.363-11.643V18.01a8.858,8.858,0,0,1,.315-2.365A8.521,8.521,0,0,1,16.155,9.608a7.456,7.456,0,0,1,9.318-3.32l.022.009a7.69,7.69,0,0,1,3.821,10.731l-.108.2c.132.12.26.243.383.368a7.336,7.336,0,0,1,2.093,5.153A7.2,7.2,0,0,1,24.551,30ZM1.3,24.163a4.449,4.449,0,0,0,4.4,4.494H24.545a5.706,5.706,0,0,0,1.369-.162,5.935,5.935,0,0,0,4.31-7.144,5.817,5.817,0,0,0-7.016-4.388,5.7,5.7,0,0,0-1.261.464.668.668,0,0,1-.2.064.658.658,0,0,1-.743-.565A7.214,7.214,0,0,0,6.653,18.006v.468c.009.15.022.289.036.417A.67.67,0,0,1,6,19.685H5.7A4.353,4.353,0,0,0,2.584,21l.007,0A4.531,4.531,0,0,0,1.3,24.163Zm26.84-7.7V16.4a6.277,6.277,0,0,0,.311-.653,6.369,6.369,0,0,0-3.474-8.216,6.089,6.089,0,0,0-4.576,0,6.221,6.221,0,0,0-3.021,2.56,8.494,8.494,0,0,1,1.59.962,4.307,4.307,0,0,1,5.3-1.763.672.672,0,0,1,.347.814.653.653,0,0,1-.828.426,3.033,3.033,0,0,0-3.8,1.425A8.73,8.73,0,0,1,22.151,15.9a7.025,7.025,0,0,1,5.991.561Zm7,1.432-2.722-.757a.671.671,0,0,1-.453-.828.657.657,0,0,1,.815-.459l2.722.756a.672.672,0,0,1,.452.828.662.662,0,0,1-.634.486A.65.65,0,0,1,35.144,17.9ZM32,11.184a.668.668,0,0,1,.472-.811l2.73-.738a.655.655,0,0,1,.764.456.669.669,0,0,1-.434.834l-2.73.738h0a.65.65,0,0,1-.164.021A.659.659,0,0,1,32,11.184ZM29.425,6.74a.679.679,0,0,1,.083-.946l2.007-2.019a.706.706,0,0,1,.078-.077.653.653,0,0,1,.931.084.679.679,0,0,1-.083.946L30.434,6.746a.643.643,0,0,1-.078.078.654.654,0,0,1-.931-.084ZM14.791,6.657l-1.985-2.04a.644.644,0,0,1-.077-.079.679.679,0,0,1,.083-.946.653.653,0,0,1,.931.085l1.985,2.039a.68.68,0,0,1,0,.869.654.654,0,0,1-.931.073ZM25.154,4.145l-.023-.006a.669.669,0,0,1-.441-.831L25.433.54a.657.657,0,0,1,.815-.459A.671.671,0,0,1,26.7.909l-.726,2.767a.1.1,0,0,1,0,.017.657.657,0,0,1-.629.479A.648.648,0,0,1,25.154,4.145ZM19.3,3.64,18.577.865c-.005-.019-.011-.039-.014-.058a.669.669,0,0,1,.506-.793.658.658,0,0,1,.779.515L20.573,3.3c.006.019.011.038.015.058a.668.668,0,0,1-.506.792.651.651,0,0,1-.137.015A.66.66,0,0,1,19.3,3.64Z" transform="translate(0 0)" fill="#3d4345"/>
</svg>
